HIERARCHY
ROOT Hips
{
	OFFSET 48.414101 -13.881915 93.717201
	CHANNELS 6 Xposition Yposition Zposition Xrotation Yrotation Zrotation
	JOINT spine
	{
		OFFSET 0.000000 -0.448574 7.800591
		CHANNELS 3 Xrotation Yrotation Zrotation
		JOINT spine1
		{
			OFFSET 0.000000 -0.000002 10.136398
			CHANNELS 3 Xrotation Yrotation Zrotation
			JOINT spine2
			{
				OFFSET 0.000000 -0.000002 9.712509
				CHANNELS 3 Xrotation Yrotation Zrotation
				JOINT Neck
				{
					OFFSET 0.000000 -1.188873 24.936096
					CHANNELS 3 Xrotation Yrotation Zrotation
					JOINT Head
					{
						OFFSET 0.000000 -0.000001 7.533844
						CHANNELS 3 Xrotation Yrotation Zrotation
						End Site
						{
							OFFSET 0.000000 6.014017 18.236099
						}
					}
				}
				JOINT RightShoulder
				{
					OFFSET -4.089649 0.569455 10.488800
					CHANNELS 3 Xrotation Yrotation Zrotation
					JOINT RightArm
					{
						OFFSET 0.000000 -0.000002 13.757004
						CHANNELS 3 Xrotation Yrotation Zrotation
						JOINT RightArmRoll
						{
							OFFSET 0.000000 -0.000001 6.944778
							CHANNELS 3 Xrotation Yrotation Zrotation
							JOINT RightForeArm
							{
								OFFSET 0.000000 -0.000004 20.227692
								CHANNELS 3 Xrotation Yrotation Zrotation
								JOINT RightForeArmRoll
								{
									OFFSET 0.000000 -0.000001 7.793121
									CHANNELS 3 Xrotation Yrotation Zrotation
									JOINT RightHand
									{
										OFFSET 0.000000 -0.000003 15.639099
										CHANNELS 3 Xrotation Yrotation Zrotation
										End Site
										{
											OFFSET 0.000000 0.000000 0.100006
										}
									}
								}
							}
						}
					}
				}
				JOINT LeftShoulder
				{
					OFFSET 4.089649 0.569455 10.488800
					CHANNELS 3 Xrotation Yrotation Zrotation
					JOINT LeftArm
					{
						OFFSET 0.000000 -0.000002 13.757004
						CHANNELS 3 Xrotation Yrotation Zrotation
						JOINT LeftArmRoll
						{
							OFFSET 0.000000 -0.000001 6.944778
							CHANNELS 3 Xrotation Yrotation Zrotation
							JOINT LeftForeArm
							{
								OFFSET 0.000000 -0.000004 20.227692
								CHANNELS 3 Xrotation Yrotation Zrotation
								JOINT LeftForeArmRoll
								{
									OFFSET 0.000000 -0.000001 7.793121
									CHANNELS 3 Xrotation Yrotation Zrotation
									JOINT LeftHand
									{
										OFFSET 0.000000 -0.000003 15.639099
										CHANNELS 3 Xrotation Yrotation Zrotation
										End Site
										{
											OFFSET 0.000000 0.000000 0.100006
										}
									}
								}
							}
						}
					}
				}
			}
		}
	}
	JOINT RightUpLeg
	{
		OFFSET -6.914150 1.063581 -1.267883
		CHANNELS 3 Xrotation Yrotation Zrotation
		JOINT RightUpLegRoll
		{
			OFFSET 0.000000 -0.000003 18.337799
			CHANNELS 3 Xrotation Yrotation Zrotation
			JOINT RightLeg
			{
				OFFSET 0.000000 0.000004 -22.708504
				CHANNELS 3 Xrotation Yrotation Zrotation
				JOINT RightLegRoll
				{
					OFFSET 0.000000 -0.000004 22.782799
					CHANNELS 3 Xrotation Yrotation Zrotation
					JOINT RightFoot
					{
						OFFSET 0.000000 -0.000003 18.962898
						CHANNELS 3 Xrotation Yrotation Zrotation
						JOINT RightToeBase
						{
							OFFSET 0.000000 -0.000003 15.852005
							CHANNELS 3 Xrotation Yrotation Zrotation
							End Site
							{
								OFFSET 0.006718 0.884892 7.677017
							}
						}
					}
				}
			}
		}
	}
	JOINT LeftUpLeg
	{
		OFFSET 6.914150 1.063581 -1.267883
		CHANNELS 3 Xrotation Yrotation Zrotation
		JOINT LeftUpLegRoll
		{
			OFFSET 0.000000 -0.000003 18.337898
			CHANNELS 3 Xrotation Yrotation Zrotation
			JOINT LeftLeg
			{
				OFFSET 0.000000 -0.000004 22.708405
				CHANNELS 3 Xrotation Yrotation Zrotation
				JOINT LeftLegRoll
				{
					OFFSET 0.000000 -0.000004 22.993393
					CHANNELS 3 Xrotation Yrotation Zrotation
					JOINT LeftFoot
					{
						OFFSET 0.000000 -0.000003 18.752197
						CHANNELS 3 Xrotation Yrotation Zrotation
						JOINT LeftToeBase
						{
							OFFSET 0.000000 -0.000003 15.852005
							CHANNELS 3 Xrotation Yrotation Zrotation
							End Site
							{
								OFFSET -0.030113 0.884891 7.677017
							}
						}
					}
				}
			}
		}
	}
}
MOTION
Frames: 9
Frame Time: 0.041667
56.219501 -12.748018 93.947899 -5.911328 1.196724 0.602571 0.013120 -0.169386 0.399118 4.030280 -0.335548 0.799737 5.675304 -0.327105 0.803668 26.312172 1.051049 -2.744236 -12.629129 -5.412363 -2.684982 -30.110353 -81.521470 -34.045921 78.528324 -76.436948 91.686622 0.000001 -0.000004 0.000001 13.841942 -12.169643 0.612449 -0.000002 0.000009 -2.999991 -5.000178 -7.998693 0.000157 -4.085808 60.541103 4.986125 -10.617603 112.141283 -3.495321 0.000003 0.000002 -0.000001 18.029457 2.192617 0.668761 0.000001 -0.000006 2.999999 -5.000231 7.999851 -0.000042 0.900106 176.771402 -2.381587 -179.999991 0.000005 -1.185006 168.624899 -1.469571 -0.645620 -0.000008 -0.000002 0.290778 71.027212 7.524446 0.247984 25.464537 -7.347295 0.007370 0.196529 -178.893009 6.329377 -0.000004 -0.000004 -1.443401 -15.090801 5.507097 0.952284 0.000001 -0.000005 -0.283841 74.051340 -7.917325 1.309376 25.461354 7.353132 -0.004510 
56.244801 -12.588717 93.933800 -5.913087 1.205772 0.579420 0.017892 -0.169622 0.398310 4.039820 -0.335942 0.798137 5.684843 -0.327434 0.802075 26.313521 1.045927 -2.732424 -12.675293 -5.395500 -2.675649 -30.102515 -81.521907 -34.037701 78.691682 -76.359022 91.831361 0.000003 -0.000003 0.000002 13.811088 -12.169164 0.609814 -0.000003 0.000009 -2.999990 -5.000177 -7.998695 0.000157 -4.097216 60.547366 5.000030 -10.668673 112.142608 -3.397280 0.000003 0.000003 -0.000001 18.088547 2.219888 0.667239 -0.000001 -0.000005 3.000004 -5.000235 7.999851 -0.000043 0.914504 176.764408 -2.388200 -179.999991 0.000005 -1.185005 168.653845 -1.464818 -0.643894 -0.000008 -0.000002 0.290110 71.012978 7.532617 0.227818 25.464535 -7.347294 0.007370 0.184936 -178.901014 6.317447 -0.000005 -0.000004 -1.444360 -15.117748 5.515329 0.954643 -0.000001 -0.000006 -0.283791 74.064966 -7.916982 1.310685 25.461354 7.353130 -0.004509 
56.237400 -12.608520 93.939796 -5.915014 1.214770 0.556410 0.022603 -0.169842 0.397510 4.049241 -0.336307 0.796554 5.694263 -0.327731 0.800499 26.316167 1.039593 -2.720392 -12.721919 -5.377164 -2.666156 -30.097143 -81.523157 -34.031998 78.848776 -76.280673 91.969938 0.000001 -0.000003 0.000001 13.779730 -12.168900 0.607190 -0.000003 0.000009 -2.999990 -5.000180 -7.998694 0.000157 -4.109178 60.554101 5.014617 -10.720739 112.143011 -3.298241 0.000003 0.000003 -0.000002 18.147645 2.247187 0.665677 0.000000 -0.000007 2.999999 -5.000232 7.999851 -0.000043 0.930661 176.757427 -2.394775 -179.999991 0.000005 -1.185005 168.685879 -1.461057 -0.642290 -0.000008 -0.000001 0.289418 70.997262 7.541162 0.206919 25.464532 -7.347293 0.007369 0.173726 -178.910016 6.305524 -0.000005 -0.000004 -1.445280 -15.144293 5.523568 0.957032 -0.000000 -0.000004 -0.283714 74.078251 -7.916414 1.311401 25.461359 7.353130 -0.004510 
56.266701 -12.784616 93.949402 -5.917067 1.223738 0.533499 0.027273 -0.170051 0.396716 4.058571 -0.336652 0.794983 5.703603 -0.328006 0.798934 26.319606 1.032417 -2.708191 -12.769025 -5.357807 -2.656549 -30.094012 -81.525152 -34.028597 79.001274 -76.202091 92.103878 0.000002 -0.000003 0.000001 13.747969 -12.168846 0.604591 -0.000004 0.000009 -2.999990 -5.000180 -7.998695 0.000157 -4.121531 60.561143 5.029687 -10.773199 112.143448 -3.198841 0.000003 0.000003 -0.000003 18.206853 2.274501 0.664072 0.000001 -0.000005 3.000001 -5.000236 7.999850 -0.000042 0.948062 176.749450 -2.401331 -179.999991 0.000005 -1.183995 168.720303 -1.456330 -0.640434 -0.000008 -0.000002 0.288708 70.980480 7.550038 0.185348 25.464537 -7.347294 0.007370 0.162788 -178.919005 6.293601 -0.000004 -0.000004 -1.446171 -15.170340 5.531825 0.959427 0.000000 -0.000004 -0.283620 74.091276 -7.915765 1.311813 25.461359 7.353130 -0.004509 
56.275799 -12.721917 93.945389 -5.919176 1.232685 0.510646 0.031917 -0.170254 0.395926 4.067860 -0.336987 0.793418 5.712894 -0.328270 0.797377 26.323638 1.024753 -2.695900 -12.816324 -5.337865 -2.646855 -30.091730 -81.527419 -34.026049 79.150534 -76.123237 92.234745 0.000003 -0.000003 0.000002 13.715907 -12.168804 0.601947 -0.000006 0.000009 -2.999990 -5.000178 -7.998694 0.000157 -4.134084 60.568267 5.045014 -10.825888 112.143927 -3.099225 0.000003 0.000003 -0.000002 18.265963 2.301825 0.662402 -0.000000 -0.000005 3.000001 -5.000232 7.999851 -0.000044 0.966167 176.742469 -2.407856 -179.999991 0.000005 -1.183995 168.755943 -1.452584 -0.638749 -0.000008 -0.000001 0.287988 70.963227 7.559061 0.163338 25.464535 -7.347294 0.007370 0.152000 -178.928007 6.281684 -0.000004 -0.000004 -1.447040 -15.196286 5.540084 0.961843 0.000002 -0.000004 -0.283518 74.104049 -7.915055 1.311914 25.461354 7.353131 -0.004510 
56.241604 -12.734816 93.943497 -5.921307 1.241632 0.487808 0.036556 -0.170456 0.395137 4.077141 -0.337320 0.791856 5.722166 -0.328531 0.795821 26.327767 1.016972 -2.683592 -12.863715 -5.317796 -2.637120 -30.089295 -81.529687 -34.023365 79.298045 -76.044287 92.363890 0.000001 -0.000003 0.000002 13.683845 -12.168857 0.599349 -0.000004 0.000009 -2.999989 -5.000181 -7.998695 0.000157 -4.146715 60.575472 5.060436 -10.878653 112.144412 -2.999538 0.000003 0.000003 -0.000001 18.325182 2.329152 0.660682 0.000001 -0.000006 3.000001 -5.000237 7.999851 -0.000042 0.984450 176.735475 -2.414385 -179.999991 0.000005 -1.183995 168.791965 -1.448839 -0.637058 -0.000008 -0.000001 0.287265 70.945687 7.568195 0.141268 25.464533 -7.347294 0.007369 0.141250 -178.935998 6.269773 -0.000005 -0.000004 -1.447911 -15.222132 5.548339 0.964264 0.000001 -0.000005 -0.283411 74.116924 -7.914296 1.311927 25.461349 7.353132 -0.004510 
56.257805 -12.737517 93.941406 -5.923398 1.250590 0.464941 0.041206 -0.170661 0.394346 4.086442 -0.337659 0.790290 5.731466 -0.328798 0.794262 26.331597 1.009428 -2.671314 -12.910910 -5.298040 -2.627382 -30.087055 -81.531948 -34.020872 79.444696 -75.965282 92.492154 0.000002 -0.000003 0.000002 13.651883 -12.168804 0.596720 -0.000005 0.000010 -2.999990 -5.000180 -7.998695 0.000156 -4.159218 60.582603 5.075702 -10.930851 112.145901 -2.900449 0.000003 0.000003 -0.000003 18.384407 2.356468 0.658901 0.000001 -0.000006 3.000002 -5.000237 7.999851 -0.000043 1.002379 176.727497 -2.420945 -179.999991 0.000005 -1.182998 168.827305 -1.444111 -0.635195 -0.000008 -0.000001 0.286548 70.928537 7.577221 0.119356 25.464535 -7.347293 0.007370 0.130424 -178.945000 6.257861 -0.000004 -0.000004 -1.448790 -15.248080 5.556590 0.966688 -0.000000 -0.000004 -0.283311 74.129805 -7.913589 1.312134 25.461355 7.353130 -0.004509 
56.249699 -12.736217 93.939095 -5.925405 1.259566 0.442005 0.045887 -0.170874 0.393551 4.095802 -0.338012 0.788717 5.740826 -0.329082 0.792695 26.334839 1.002498 -2.659156 -12.957922 -5.279057 -2.617684 -30.083008 -81.533662 -34.016531 79.592030 -75.886298 92.621183 0.000001 -0.000003 0.000001 13.620226 -12.168728 0.594123 -0.000002 0.000009 -2.999991 -5.000182 -7.998695 0.000156 -4.171479 60.589529 5.090651 -10.983219 112.146392 -2.801227 0.000003 0.000003 -0.000002 18.443640 2.383770 0.657060 0.000001 -0.000006 3.000002 -5.000234 7.999851 -0.000043 1.019423 176.720517 -2.427513 -179.999991 0.000005 -1.182998 168.861032 -1.440351 -0.633572 -0.000008 -0.000002 0.285843 70.912076 7.586066 0.097970 25.464537 -7.347294 0.007370 0.119404 -178.954003 6.245949 -0.000004 -0.000004 -1.449680 -15.274231 5.564841 0.969110 0.000000 -0.000005 -0.283222 74.142947 -7.912921 1.312552 25.461350 7.353131 -0.004509 
56.255898 -12.743316 93.937401 -5.927282 1.268594 0.418957 0.050617 -0.171100 0.392749 4.105252 -0.338389 0.787129 5.750286 -0.329392 0.791115 26.337093 0.996536 -2.647195 -13.004446 -5.261289 -2.608056 -30.077189 -81.534741 -34.010370 79.741475 -75.807491 92.752473 0.000001 -0.000003 0.000002 13.589067 -12.168333 0.591487 -0.000002 0.000010 -2.999990 -5.000181 -7.998695 0.000158 -4.183305 60.596072 5.105071 -11.034725 112.147868 -2.702778 0.000003 0.000003 -0.000003 18.502781 2.411053 0.655166 -0.000000 -0.000006 2.999999 -5.000234 7.999851 -0.000044 1.035057 176.713537 -2.434124 -179.999991 0.000005 -1.182997 168.892164 -1.435599 -0.631827 -0.000008 -0.000001 0.285158 70.896879 7.594551 0.077341 25.464537 -7.347295 0.007370 0.108078 -178.962008 6.234048 -0.000004 -0.000004 -1.450621 -15.300880 5.573065 0.971538 0.000000 -0.000005 -0.283155 74.156306 -7.912477 1.313559 25.461355 7.353131 -0.004509 
